<?xml version="1.0" standalone="no"?>
<svg xmlns:xlink="http://www.w3.org/1999/xlink" id="wave" style="transform:rotate(180deg); transition: 0.3s" viewBox="0 0 1440 100" version="1.1" xmlns="http://www.w3.org/2000/svg"><defs><linearGradient id="sw-gradient-0" x1="0" x2="0" y1="1" y2="0"><stop stop-color="rgba(255, 255, 255, 1)" offset="0%"/><stop stop-color="rgba(255, 255, 255, 1)" offset="100%"/></linearGradient></defs><path style="transform:translate(0, 0px); opacity:1" fill="url(#sw-gradient-0)" d="M0,50L30,55C60,60,120,70,180,68.3C240,67,300,53,360,41.7C420,30,480,20,540,23.3C600,27,660,43,720,41.7C780,40,840,20,900,13.3C960,7,1020,13,1080,20C1140,27,1200,33,1260,33.3C1320,33,1380,27,1440,25C1500,23,1560,27,1620,26.7C1680,27,1740,23,1800,21.7C1860,20,1920,20,1980,30C2040,40,2100,60,2160,61.7C2220,63,2280,47,2340,35C2400,23,2460,17,2520,20C2580,23,2640,37,2700,45C2760,53,2820,57,2880,61.7C2940,67,3000,73,3060,75C3120,77,3180,73,3240,70C3300,67,3360,63,3420,63.3C3480,63,3540,67,3600,70C3660,73,3720,77,3780,73.3C3840,70,3900,60,3960,46.7C4020,33,4080,17,4140,10C4200,3,4260,7,4290,8.3L4320,10L4320,100L4290,100C4260,100,4200,100,4140,100C4080,100,4020,100,3960,100C3900,100,3840,100,3780,100C3720,100,3660,100,3600,100C3540,100,3480,100,3420,100C3360,100,3300,100,3240,100C3180,100,3120,100,3060,100C3000,100,2940,100,2880,100C2820,100,2760,100,2700,100C2640,100,2580,100,2520,100C2460,100,2400,100,2340,100C2280,100,2220,100,2160,100C2100,100,2040,100,1980,100C1920,100,1860,100,1800,100C1740,100,1680,100,1620,100C1560,100,1500,100,1440,100C1380,100,1320,100,1260,100C1200,100,1140,100,1080,100C1020,100,960,100,900,100C840,100,780,100,720,100C660,100,600,100,540,100C480,100,420,100,360,100C300,100,240,100,180,100C120,100,60,100,30,100L0,100Z"/></svg>